<svg width="400" height="120" xmlns="http://www.w3.org/2000/svg">
 <style type="text/css">.st0{fill:#F20000;}
	.st1{fill:#F20606;}
	.st2{fill:#4FFF3F;}
	.st3{fill:#8CFF4A;}
	.st4{fill:none;stroke:#8A0000;stroke-width:1.5;stroke-linecap:round;}
	.st5{fill:none;stroke:#940000;stroke-width:1.5;stroke-linecap:round;}
	.st6{fill:#F20606;stroke:#C4233F;stroke-width:2;stroke-linecap:round;}
	.st7{fill:none;stroke:#000000;}
	.st8{fill:#7C7C7C;}
	.st9{fill:#231F20;}
	.st10{opacity:0.75;fill:none;stroke:#FFFF00;stroke-width:5;enable-background:new    ;}
	.st11{fill:none;stroke:#FFFF00;stroke-width:5;}
	.st12{opacity:0.4;enable-background:new    ;}
	.st13{opacity:0.6;enable-background:new    ;}
	.st14{opacity:0.9;enable-background:new    ;}
	.st15{opacity:0.3;enable-background:new    ;}
	.st16{opacity:0.5;enable-background:new    ;}
	.st17{opacity:0.7;enable-background:new    ;}
	.st18{fill:#FF260A;}
	.st19{fill:#FF3F1F;}
	.st20{fill:#626262;}
	.st21{fill:#FF3F3F;}
	.st22{opacity:0.9;fill:#FF3F3F;}
	.st23{opacity:0.8;fill:#FF3F3F;}
	.st24{opacity:0.7;fill:#FF3F3F;}
	.st25{opacity:0.6;fill:#FF3F3F;}
	.st26{opacity:0.5;fill:#FF3F3F;}
	.st27{opacity:0.4;fill:#FF3F3F;}
	.st28{opacity:0.3;fill:#FF3F3F;}</style>

 <g>
  <title>background</title>
  <rect fill="none" id="canvas_background" height="402" width="582" y="-1" x="-1"/>
 </g>
 <g>
  <title>Layer 1</title>
  <path id="svg_1" d="m16.5,8.5c0.3,0.1 0.4,0.5 0.2,0.8c-0.1,0.1 -0.1,0.2 -0.2,0.2l-11.4,7c-0.5,0.3 -0.8,0.1 -0.8,-0.5l0,-14c0,-0.5 0.4,-0.8 0.8,-0.5l11.4,7z" class="st0"/>
  <path id="svg_2" d="m24,1l2.2,0c0.6,0 1,0.4 1,1l0,14c0,0.6 -0.4,1 -1,1l-2.2,0c-0.6,0 -1,-0.4 -1,-1l0,-14c0,-0.5 0.4,-1 1,-1zm9.8,0l2.2,0c0.6,0 1,0.4 1,1l0,14c0,0.6 -0.4,1 -1,1l-2.2,0c-0.6,0 -1,-0.4 -1,-1l0,-14c0,-0.5 0.4,-1 1,-1z" class="st1"/>
  <path id="svg_3" d="m81,1.4c0,-0.6 0.4,-1 1,-1l5.4,0c0.6,0 0.7,0.3 0.3,0.7l-6,6c-0.4,0.4 -0.7,0.3 -0.7,-0.3c0,0 0,-5.4 0,-5.4zm0,15.8c0,0.6 0.4,1 1,1l5.4,0c0.6,0 0.7,-0.3 0.3,-0.7l-6,-6c-0.4,-0.4 -0.7,-0.3 -0.7,0.3c0,0 0,5.4 0,5.4zm17.8,-15.8c0,-0.6 -0.4,-1 -1,-1l-5.4,0c-0.6,0 -0.7,0.3 -0.3,0.7l6,6c0.4,0.4 0.7,0.3 0.7,-0.3c0,0 0,-5.4 0,-5.4zm0,15.8c0,0.6 -0.4,1 -1,1l-5.4,0c-0.6,0 -0.7,-0.3 -0.3,-0.7l6,-6c0.4,-0.4 0.7,-0.3 0.7,0.3c0,0 0,5.4 0,5.4z" class="st2"/>
  <path id="svg_4" d="m112.7,5c0,0.6 0.4,1 1,1l4.1,0c0.6,0 0.7,-0.3 0.3,-0.7l-4.7,-4.7c-0.4,-0.4 -0.7,-0.3 -0.7,0.3c0,0 0,4.1 0,4.1zm-7.1,1c0.6,0 1,-0.4 1,-1l0,-4.1c0,-0.6 -0.3,-0.7 -0.7,-0.3l-4.7,4.7c-0.4,0.4 -0.3,0.7 0.3,0.7c0,0 4.1,0 4.1,0zm1,7.1c0,-0.6 -0.4,-1 -1,-1l-4.1,0c-0.6,0 -0.7,0.3 -0.3,0.7l4.7,4.7c0.4,0.4 0.7,0.3 0.7,-0.3c0,0 0,-4.1 0,-4.1zm7.1,-1c-0.6,0 -1,0.4 -1,1l0,4.1c0,0.5 0.3,0.7 0.7,0.3l4.7,-4.7c0.4,-0.4 0.3,-0.7 -0.3,-0.7c0,0 -4.1,0 -4.1,0z" class="st3"/>
  <path id="svg_5" d="m67,5.8c-0.5,0.4 -1.2,0.6 -1.8,0.6l-3.2,0c-0.6,0 -1,0.4 -1,1l0,5.7c0,0.6 0.4,1 1,1l4.2,0c0.3,0.2 0.5,0.4 0.8,0.6l3.5,2.6c0.4,0.3 0.8,0.1 0.8,-0.4l0,-13.4c0,-0.5 -0.4,-0.7 -0.8,-0.4l-3.5,2.7z"/>
  <path id="svg_6" d="m73.9,2.5c0,0 3.9,-0.8 3.9,7.7s-3.9,7.8 -3.9,7.8" class="st4"/>
  <path id="svg_7" d="m72.6,6.4c0,0 2.6,-0.4 2.6,3.8s-2.6,3.9 -2.6,3.9" class="st5"/>
  <path id="svg_8" d="m47,5.8c-0.5,0.4 -1.2,0.6 -1.8,0.6l-3.2,0c-0.6,0 -1,0.4 -1,1l0,5.7c0,0.6 0.4,1 1,1l4.2,0c0.3,0.2 0.5,0.4 0.8,0.6l3.5,2.6c0.4,0.3 0.8,0.1 0.8,-0.4l0,-13.4c0,-0.5 -0.4,-0.7 -0.8,-0.4l-3.5,2.7z"/>
  <path id="svg_9" d="m52.8,7l5.4,5.4m-5.4,0l5.4,-5.4" class="st6"/>
  <path id="svg_10" d="m128.7,8.6c-6.2,-4.2 -6.5,7.8 0,3.9m6.5,-3.9c-6.2,-4.2 -6.5,7.8 0,3.9" class="st7"/>
  <path id="svg_11" d="m122.2,3.4l15.7,0l0,13.1l-15.7,0l0,-13.1zm-1.4,-1.4l0,15.7l18.3,0l0,-15.7l-18.3,0z"/>
  <path id="svg_12" d="m143.2,3l14,0c1.1,0 2,0.9 2,2l0,10c0,1.1 -0.9,2 -2,2l-14,0c-1.1,0 -2,-0.9 -2,-2l0,-10c0,-1.1 0.9,-2 2,-2z" class="st8"/>
  <path id="svg_13" d="m146.4,13.8c-0.8,0 -1.6,-0.4 -2.1,-1c-1.1,-1.4 -1,-3.4 0.1,-4.8c0.5,-0.6 2,-1.7 4.6,0.2l-0.6,0.8c-1.4,-1 -2.6,-1.1 -3.3,-0.3c-0.8,1 -0.8,2.4 -0.1,3.5c0.7,0.9 1.9,0.8 3.4,-0.1l0.5,0.9c-0.7,0.5 -1.6,0.7 -2.5,0.8l0,0zm7.5,0c-0.8,0 -1.6,-0.4 -2.1,-1c-1.1,-1.4 -1,-3.4 0.1,-4.8c0.5,-0.6 2,-1.7 4.6,0.2l-0.5,0.8c-1.4,-1 -2.6,-1.1 -3.3,-0.3c-0.8,1 -0.8,2.4 -0.1,3.5c0.7,0.9 1.9,0.8 3.4,-0.1l0.5,0.9c-0.8,0.5 -1.7,0.7 -2.6,0.8l0,0z" class="st9"/>
  <path id="svg_14" d="m2.5,79c0,-20.7 16.8,-37.5 37.5,-37.5s37.5,16.8 37.5,37.5s-16.8,37.5 -37.5,37.5s-37.5,-16.8 -37.5,-37.5z" class="st10"/>
  <path id="svg_15" d="m82.5,79c0,-20.7 16.8,-37.5 37.5,-37.5s37.5,16.8 37.5,37.5s-16.8,37.5 -37.5,37.5s-37.5,-16.8 -37.5,-37.5z" class="st11"/>
  <circle id="svg_16" r="8.1" cy="47.1" cx="201.9"/>
  <circle id="svg_17" r="5" cy="79" cx="233.9" class="st12"/>
  <circle id="svg_18" r="6" cy="110.9" cx="201.9" class="st13"/>
  <circle id="svg_19" r="7" cy="79" cx="170.1" class="st14"/>
  <circle id="svg_20" r="7.5" cy="56.3" cx="178.2" class="st14"/>
  <circle id="svg_21" r="4.5" cy="56.1" cx="226.3" class="st15"/>
  <circle id="svg_22" r="5.5" cy="102.8" cx="225.8" class="st16"/>
  <circle id="svg_23" r="6.5" cy="102.8" cx="178.2" class="st17"/>
  <path id="svg_24" d="m178,9.4c0,0.4 -0.4,0.7 -0.9,0.7c-0.1,0 -0.2,0 -0.2,-0.1l-4.9,-1.8c-0.5,-0.2 -0.6,-0.6 -0.1,-0.8l6.2,-3.6c0.5,-0.3 0.8,-0.1 0.7,0.5l-0.8,5.1l0,0z" class="st18"/>
  <path id="svg_25" d="m169.4,15.9c-1,0 -2,-0.2 -2.9,-0.7c-2,-1 -3.2,-3 -3.2,-5.2c0.1,-3.4 2.9,-6 6.3,-6c2.5,0.1 4.8,1.7 5.6,4.1l0.1,-0.1l2.1,1.1c-0.6,-4.4 -4.7,-7.5 -9.1,-6.9c-3.9,0.6 -6.9,3.9 -7,7.9c0,2.9 1.7,5.6 4.3,7c1.2,0.6 2.5,0.9 3.8,1c2.6,0 5,-1.2 6.6,-3.3l-1.8,-0.9c-1.2,1.2 -3,2 -4.8,2l0,0z" class="st19"/>
  <path id="svg_26" d="m183.4,3.2c0.8,0 1.5,0.7 1.5,1.5s-0.7,1.5 -1.5,1.5s-1.5,-0.7 -1.5,-1.5c0,-0.9 0.7,-1.5 1.5,-1.5zm5.1,0l8.5,0c0.9,0 1.5,0.7 1.5,1.5s-0.7,1.5 -1.5,1.5l-8.5,0c-0.9,0 -1.5,-0.7 -1.5,-1.5c-0.1,-0.9 0.6,-1.5 1.5,-1.5zm-5.1,5c0.8,0 1.5,0.7 1.5,1.5s-0.7,1.5 -1.5,1.5s-1.5,-0.7 -1.5,-1.5c0,-0.9 0.7,-1.5 1.5,-1.5zm5.1,0l8.5,0c0.9,0 1.5,0.7 1.5,1.5s-0.7,1.5 -1.5,1.5l-8.5,0c-0.9,0 -1.5,-0.7 -1.5,-1.5c-0.1,-0.9 0.6,-1.5 1.5,-1.5zm-5.1,5c0.8,0 1.5,0.7 1.5,1.5s-0.7,1.5 -1.5,1.5s-1.5,-0.7 -1.5,-1.5c0,-0.9 0.7,-1.5 1.5,-1.5zm5.1,0l8.5,0c0.9,0 1.5,0.7 1.5,1.5s-0.7,1.5 -1.5,1.5l-8.5,0c-0.9,0 -1.5,-0.7 -1.5,-1.5c-0.1,-0.9 0.6,-1.5 1.5,-1.5z" class="st20"/>
  <polygon id="svg_27" points="41,51.8 47.1,70.6 66.9,70.6 50.9,82.2 57,101 41,89.4 25,101 31.1,82.2 15.1,70.6 34.9,70.6 " class="st21"/>
  <polygon id="svg_28" points="121,51.8 127.1,70.6 146.9,70.6 130.9,82.2 137,101 121,89.4 105,101 111.1,82.2 95.1,70.6   114.9,70.6 " class="st21"/>
  <polygon id="svg_29" points="201.9,39 203.7,44.6 209.6,44.6 204.8,48.1 206.7,53.7 201.9,50.2 197.1,53.7 199,48.1 194.2,44.6   200.1,44.6 " class="st21"/>
  <polygon id="svg_30" points="182.3,62.6 178,59 173.3,62 175.4,56.8 171.1,53.3 176.6,53.6 178.7,48.4 180.1,53.8 185.6,54.2   180.9,57.2 " class="st22"/>
  <polygon id="svg_31" points="170.1,72 171.7,76.8 176.8,76.8 172.6,79.8 174.2,84.7 170.1,81.7 166,84.7 167.6,79.8 163.4,76.8   168.5,76.8 " class="st23"/>
  <polygon id="svg_32" points="178.3,96.4 179.8,100.8 184.4,100.8 180.7,103.6 182.1,108 178.3,105.2 174.6,108 176,103.6   172.2,100.8 176.9,100.8 " class="st24"/>
  <polygon id="svg_33" points="201.9,104.9 203.2,109 207.6,109 204.1,111.6 205.4,115.7 201.9,113.2 198.4,115.7 199.7,111.6   196.2,109 200.6,109 " class="st25"/>
  <polygon id="svg_34" points="225.8,97.3 227,101.1 231,101.1 227.8,103.4 229,107.2 225.8,104.9 222.6,107.2 223.8,103.4   220.6,101.1 224.6,101.1 " class="st26"/>
  <polygon id="svg_35" points="233.9,74 235,77.5 238.7,77.5 235.7,79.6 236.8,83 233.9,80.9 231,83 232.1,79.6 229.1,77.5   232.8,77.5 " class="st27"/>
  <polygon id="svg_36" points="226.3,52 227.3,55 230.4,55 227.9,56.8 228.8,59.8 226.3,58 223.8,59.8 224.7,56.8 222.2,55 225.3,55   " class="st28"/>
 </g>
</svg>